<svg xmlns="http://www.w3.org/2000/svg" viewBox="0 0 32 32" width="32" height="32">
  <defs>
    <linearGradient id="brickGradient" x1="0%" y1="0%" x2="100%" y2="100%">
      <stop offset="0%" style="stop-color:#8B4513;stop-opacity:1" />
      <stop offset="100%" style="stop-color:#A0522D;stop-opacity:1" />
    </linearGradient>
    <linearGradient id="mortarGradient" x1="0%" y1="0%" x2="100%" y2="100%">
      <stop offset="0%" style="stop-color:#D2B48C;stop-opacity:1" />
      <stop offset="100%" style="stop-color:#F5DEB3;stop-opacity:1" />
    </linearGradient>
  </defs>
  
  <!-- Background -->
  <rect width="32" height="32" fill="#F5F5DC"/>
  
  <!-- Wall structure -->
  <g transform="translate(2, 2)">
    <!-- Row 1 -->
    <rect x="0" y="0" width="6" height="4" fill="url(#brickGradient)" stroke="#654321" stroke-width="0.5"/>
    <rect x="7" y="0" width="6" height="4" fill="url(#brickGradient)" stroke="#654321" stroke-width="0.5"/>
    <rect x="14" y="0" width="6" height="4" fill="url(#brickGradient)" stroke="#654321" stroke-width="0.5"/>
    <rect x="21" y="0" width="6" height="4" fill="url(#brickGradient)" stroke="#654321" stroke-width="0.5"/>
    
    <!-- Row 2 (offset) -->
    <rect x="3.5" y="5" width="6" height="4" fill="url(#brickGradient)" stroke="#654321" stroke-width="0.5"/>
    <rect x="10.5" y="5" width="6" height="4" fill="url(#brickGradient)" stroke="#654321" stroke-width="0.5"/>
    <rect x="17.5" y="5" width="6" height="4" fill="url(#brickGradient)" stroke="#654321" stroke-width="0.5"/>
    
    <!-- Row 3 -->
    <rect x="0" y="10" width="6" height="4" fill="url(#brickGradient)" stroke="#654321" stroke-width="0.5"/>
    <rect x="7" y="10" width="6" height="4" fill="url(#brickGradient)" stroke="#654321" stroke-width="0.5"/>
    <rect x="14" y="10" width="6" height="4" fill="url(#brickGradient)" stroke="#654321" stroke-width="0.5"/>
    <rect x="21" y="10" width="6" height="4" fill="url(#brickGradient)" stroke="#654321" stroke-width="0.5"/>
    
    <!-- Row 4 (offset) -->
    <rect x="3.5" y="15" width="6" height="4" fill="url(#brickGradient)" stroke="#654321" stroke-width="0.5"/>
    <rect x="10.5" y="15" width="6" height="4" fill="url(#brickGradient)" stroke="#654321" stroke-width="0.5"/>
    <rect x="17.5" y="15" width="6" height="4" fill="url(#brickGradient)" stroke="#654321" stroke-width="0.5"/>
    
    <!-- Row 5 -->
    <rect x="0" y="20" width="6" height="4" fill="url(#brickGradient)" stroke="#654321" stroke-width="0.5"/>
    <rect x="7" y="20" width="6" height="4" fill="url(#brickGradient)" stroke="#654321" stroke-width="0.5"/>
    <rect x="14" y="20" width="6" height="4" fill="url(#brickGradient)" stroke="#654321" stroke-width="0.5"/>
    <rect x="21" y="20" width="6" height="4" fill="url(#brickGradient)" stroke="#654321" stroke-width="0.5"/>
    
    <!-- Mortar lines (horizontal) -->
    <rect x="0" y="4" width="28" height="1" fill="url(#mortarGradient)"/>
    <rect x="0" y="9" width="28" height="1" fill="url(#mortarGradient)"/>
    <rect x="0" y="14" width="28" height="1" fill="url(#mortarGradient)"/>
    <rect x="0" y="19" width="28" height="1" fill="url(#mortarGradient)"/>
    <rect x="0" y="24" width="28" height="1" fill="url(#mortarGradient)"/>
    
    <!-- Mortar lines (vertical) -->
    <rect x="6" y="0" width="1" height="28" fill="url(#mortarGradient)"/>
    <rect x="13" y="0" width="1" height="28" fill="url(#mortarGradient)"/>
    <rect x="20" y="0" width="1" height="28" fill="url(#mortarGradient)"/>
    <rect x="27" y="0" width="1" height="28" fill="url(#mortarGradient)"/>
  </g>
</svg> 